<svg xmlns="http://www.w3.org/2000/svg" viewBox="165 425 1740 1165"><defs><linearGradient id="g" x1="0" y1="0" x2="1" y2="0.15">
<stop offset="0" stop-color="#7ad0ff"/><stop offset="0.30" stop-color="#4aaef5"/>
<stop offset="0.48" stop-color="#3f92ef"/><stop offset="0.56" stop-color="#9a6ae0"/>
<stop offset="0.64" stop-color="#f04b4b"/><stop offset="0.88" stop-color="#ff5f5f"/>
<stop offset="0.96" stop-color="#ff9a3c"/><stop offset="1" stop-color="#ffc93c"/>
</linearGradient></defs><path d="M480.5 451.6C473.4 456.4 471.8 459.1 466.6 474.2C459.4 495.4 455.2 501.6 441.3 510.7C432.7 516.4 430 519.7 430 524.8C430 528.1 432.2 530.4 438.8 534C444.6 537.1 448 542 448 547.2C448 549.3 446.8 556.8 445.4 563.8C441 585.3 421 662.2 409.2 703C405.3 716.5 400.7 732.5 399 738.5C397.3 744.6 394.6 753.8 393 759C391.4 764.2 388.1 775.3 385.6 783.5C364.8 852.6 346.3 909.9 334.7 941.5C326.9 962.6 311.3 1002.1 304.6 1017.3C298.3 1031.8 296.1 1035.2 285.5 1047.6C268.7 1067.2 247.4 1097.4 242.1 1109.2C235.2 1124.4 236.2 1135.5 244.7 1139.5C248.3 1141.2 248.5 1141.2 252 1139.4C254.5 1138 256.9 1135.2 260.2 1129.5C269 1114.5 277.5 1101.6 284.5 1092.6C288.4 1087.6 293.2 1081.2 295.2 1078.4C297.3 1075.6 299.6 1072.8 300.3 1072.1C301.1 1071.5 300.1 1075.8 297.9 1082.2C283.1 1125.9 270.3 1171.2 261.4 1212L259.5 1220.5L259 1210C258.2 1195.8 255.7 1192 248.8 1194.3C245.3 1195.4 241 1202.8 237.1 1214.5C233.8 1224.6 231 1237.2 231 1242.3C231 1249 233.9 1256.1 239 1261.4L243.9 1266.5L234.8 1281.5C219.2 1307.6 199.7 1349 193.1 1370.4C189.9 1380.8 190.5 1392 194.4 1392C195.1 1392 198.8 1386.3 202.7 1379.3C206.5 1372.2 213 1361.1 217.1 1354.5C224.7 1342.1 250.5 1303.3 252.2 1301.5C252.9 1300.8 253.1 1302.1 252.6 1305.5C252.3 1308.3 251.6 1315.7 251 1322C248.8 1346.9 239.3 1412.9 234.5 1436.5C230.3 1457.3 224.4 1480.8 221 1490.5C215.9 1504.7 212.6 1510.7 201.4 1525.5C194 1535.3 189 1545.2 189 1550.2C189 1558.1 194.1 1564.5 201.4 1565.7C205.9 1566.4 212.3 1562.8 217.2 1556.8C225.2 1547.2 239.1 1534.2 247 1528.8C277.4 1508.5 318 1496.7 352 1498.4C371.1 1499.3 380.8 1502.2 398.2 1512.2C406.6 1517 407.3 1517.2 413 1516.8C417.8 1516.5 419.7 1515.8 422.7 1513.4C427.7 1509.4 432.6 1502 434.5 1495.7C435.8 1491.3 436 1486.7 435.4 1467C434.4 1431.7 437.2 1410.3 448.9 1364C460.9 1316.4 475.9 1268.5 490.8 1230C516.3 1164.2 538.5 1127 572.4 1093.6C595.7 1070.5 614.7 1056.3 639.5 1043.4C661.2 1032 681.2 1024.5 706.8 1018C724.8 1013.5 736.9 1012 761 1011.3C793 1010.4 814.7 1012.7 835 1019.2C861.8 1027.8 879.6 1042.3 889 1063.4C902.3 1093.3 895.1 1138.2 868.8 1188C859.4 1205.9 842.3 1232.4 824.7 1256.5C789.4 1304.8 784.7 1311.5 774.6 1326.7C757.4 1352.7 750.2 1367.2 743.1 1389.3C739.1 1402 737.6 1412.2 738.3 1423.2C739.8 1449.7 753.2 1473.7 776.9 1492.8C793.7 1506.3 808.6 1514.3 830.2 1521.4C859.1 1530.9 882.3 1534.4 917 1534.4C942.9 1534.4 954.7 1533.4 981.5 1528.9C1006.6 1524.7 1027.6 1519.3 1056.2 1510C1083.5 1501.1 1106.9 1492 1148.7 1474.2C1263.6 1425 1321.2 1408.8 1394.3 1404.9C1449.1 1402.1 1511.2 1413.7 1574.5 1438.5C1625.8 1458.7 1674.4 1486.1 1703.5 1511.3C1712.7 1519.3 1717.1 1521.6 1720 1520C1728.4 1515.5 1721.2 1502.2 1697.5 1478.4C1680.6 1461.4 1670.7 1452.9 1650.6 1438.1C1582.4 1387.7 1520.7 1357.9 1445 1339C1386.8 1324.5 1340.2 1319.2 1279.5 1320.3C1242.1 1321 1213.3 1323.9 1173 1331C1166.7 1332.1 1156.6 1333.9 1150.5 1335C1144.5 1336 1131 1338.5 1120.5 1340.4C1085.5 1346.9 1073 1348.4 1054.5 1348.4C1040.3 1348.4 1036.2 1348 1029.8 1346.2C1007.5 1340.1 993.8 1327.4 989.6 1308.9C985.2 1289.8 986.2 1279.5 998.1 1219C1008.6 1165.6 1010.8 1151.5 1014 1116C1019.4 1055.1 1019.4 1025.4 1013.9 940C1011.4 901.9 1010.9 853 1012.8 837C1018.1 792.9 1032.6 757.3 1057.9 725.7C1068.4 712.7 1085.6 698.2 1101.2 689.4C1115 681.5 1135.9 674.4 1156 670.8C1167 668.9 1195.9 669.2 1209.5 671.4C1247 677.5 1291.5 694.2 1337.6 719.5C1346.2 724.2 1355.9 729.9 1359.1 732.1C1375.9 743.4 1394.4 760.5 1408.5 777.5C1434 808.3 1450 849.6 1454.1 895C1455.4 909.4 1454.8 936.5 1453 953C1450.7 972.9 1444.6 999 1437.5 1018.5C1425.5 1051.9 1410.4 1076.9 1389.3 1098.4C1377.3 1110.5 1363.5 1120.5 1349.6 1127C1336.1 1133.4 1325.5 1136 1312.6 1136C1304.3 1136 1301.4 1135.5 1293.7 1132.9C1274.7 1126.6 1260.8 1116.3 1243.3 1095.5C1234.1 1084.6 1222.1 1064.8 1211.4 1043C1195.8 1011.3 1190.5 1003.1 1182.5 998.4C1176.7 995 1172 995.2 1167.6 999.1C1155.9 1009.3 1155.2 1045.2 1165.5 1095.5C1175.4 1143.7 1196.5 1184.6 1226.9 1214.7C1254.2 1241.8 1281.8 1257.6 1314 1264.6C1320.7 1266.1 1326.6 1266.5 1342.5 1266.5C1358.8 1266.4 1364.6 1266 1374.1 1264.2C1403.6 1258.6 1431.7 1247.8 1462.4 1230.1C1467.3 1227.3 1471.6 1225.1 1471.9 1225.2C1472.4 1225.5 1482.3 1235.9 1515.9 1271.5C1520.1 1275.9 1530.7 1287.4 1539.5 1297C1582.9 1344.3 1621.3 1383.4 1644.5 1404C1668.3 1425 1689.6 1439.8 1710.2 1449.5C1721.5 1454.8 1737.8 1460.3 1748.5 1462.5C1759.5 1464.8 1776.7 1465.5 1787.8 1464.1C1803.4 1462.2 1822.3 1455.4 1839.6 1445.5C1855.4 1436.4 1870 1422.9 1876.7 1411.2C1881.4 1402.9 1882.3 1394.4 1879.2 1388.3C1878 1386.1 1875.2 1382.6 1872.8 1380.6C1866.2 1374.9 1861.5 1374 1839.1 1374C1828.3 1374 1815.5 1373.5 1810.5 1373C1787.7 1370.4 1758.5 1361.6 1739 1351.3C1725.8 1344.3 1705.3 1330.9 1695.8 1322.9C1683.5 1312.7 1666.1 1295.2 1655.2 1282C1644.6 1269.2 1626.6 1243 1616.8 1226C1608.3 1211.3 1599.8 1192.5 1592 1171.2L1589.8 1165L1597.1 1157.2C1615.1 1138.4 1632.2 1114.2 1644.1 1090.7C1665.6 1048.5 1676 1002.9 1676 951.8C1676 929.6 1674.9 915.8 1671.4 894.2C1662.9 840.5 1642.5 789 1611.9 744C1585.7 705.3 1546.8 667.6 1508 643.3C1496.1 635.8 1472.2 623.1 1463.3 619.5C1380.1 585.8 1362.4 576.5 1279.5 541.9C1260.1 533.8 1218.3 519.7 1199.5 514.8C1188.3 511.9 1186.9 511.7 1175 512.3C1132.9 514.3 1086.9 532.1 1048.2 561.2C1036.4 570 1016 588 1011.3 593.7C1009.6 595.8 1005.2 600.9 1001.5 605C985.2 623.4 963.6 655 948.5 682.5C927.9 720.1 885 808.5 874 836C860.6 869.5 855.8 899.9 859 930.4C860.4 944.6 865.3 962.8 870.3 972.8C872.3 976.7 873.7 980 873.4 980C873 980 870.2 977.6 867 974.7C856.4 964.9 841.4 956.3 826 951.1C804.8 944.1 774 943.2 741 948.6C730.1 950.4 701.6 957.5 687.6 962C666.1 968.9 612.4 991.7 572.5 1010.9C562.2 1015.9 553.6 1019.9 553.4 1019.8C553.3 1019.6 554.7 1014.9 556.6 1009.2C559.7 1000 563.6 986.8 576 944C578.2 936.6 585.8 910 592.9 885C614.3 810.1 623.8 778.3 638.2 733.5C642.6 719.8 647.1 705.8 648.1 702.5C651.5 691.4 674.7 624.7 681.3 607C688.1 588.8 701.5 554.6 709.4 535.5C711.9 529.5 714 523.2 714 521.5C714 518 711 512.6 708.1 511C706.5 510.2 705.2 510.4 702 512C699.7 513.2 697.7 514.7 697.3 515.5C696.6 517.6 695 517.4 695 515.3C694.9 509.2 686.1 498 675.5 490.5C658.2 478.2 639.6 471.6 614.4 468.9C600 467.3 576.9 468.7 556.8 472.4C541.5 475.3 517.2 482.1 503.2 487.4C498 489.4 493.5 491 493.1 491C492.6 491 493.4 487.3 494.8 482.8C498 471.9 498.8 459.5 496.6 455.2C494.8 451.7 490.4 449 486.7 449C485.4 449 482.6 450.2 480.5 451.6" fill="url(#g)"/></svg>